<svg width="254" height="254" viewBox="0 0 254 254" fill="none" xmlns="http://www.w3.org/2000/svg">
<ellipse cx="127.154" cy="127.159" rx="125" ry="125" transform="rotate(179.343 127.154 127.159)" fill="#5C3F41"/>
<path d="M212.877 218.135L71.1727 15.3633C79.3612 11.2554 88.0663 8.01976 97.1677 5.77963L230.819 197.026C225.629 204.712 219.606 211.792 212.877 218.135Z" fill="#44292B"/>
<path d="M4.1054 149.271L234.37 62.8571C238.959 70.4918 242.756 78.6594 245.647 87.2475L11.6596 175.058C8.2603 166.869 5.7056 158.238 4.1054 149.271Z" fill="#44292B"/>
<path fill-rule="evenodd" clip-rule="evenodd" d="M230.864 196.959C244.567 176.638 252.448 152.088 252.146 125.726C251.99 112.179 249.686 99.1608 245.56 86.9908L173.035 114.208L230.864 196.959Z" fill="#E7C08E"/>
<ellipse cx="127.639" cy="185.548" rx="20.9184" ry="9.5" transform="rotate(-0.126006 127.639 185.548)" fill="black" fill-opacity="0.1"/>
<path d="M188.686 106.76C188.826 150.395 143.693 176.75 130.614 183.47C128.385 184.615 125.82 184.621 123.583 183.486C110.462 176.824 65.1593 150.667 65.0189 107.032C64.9106 73.4039 92.5067 46.0819 126.656 46.0068C160.806 45.9317 188.578 73.132 188.686 106.76Z" fill="#FA8A93"/>
<path d="M125.161 132.915C139.732 134.26 152.652 123.719 154.02 109.369C155.387 95.019 144.684 82.2952 130.113 80.9495C115.541 79.6038 102.621 90.1457 101.253 104.495C99.8858 118.845 110.589 131.569 125.161 132.915Z" fill="white"/>
</svg>
